<svg xmlns="http://www.w3.org/2000/svg" viewBox="0 0 512 512">
  <rect width="512" height="512" rx="112" fill="#102033"/>
  <circle cx="256" cy="256" r="188" fill="#1f4a6b"/>
  <path d="M105 155c8-40 39-70 78-78l-8 67c-23 4-42 23-46 46z" fill="#ffb347"/>
  <path d="M407 155c-8-40-39-70-78-78l8 67c23 4 42 23 46 46z" fill="#ffb347"/>
  <rect x="151" y="365" width="38" height="74" rx="16" fill="#ffb347"/>
  <rect x="323" y="365" width="38" height="74" rx="16" fill="#ffb347"/>
  <circle cx="256" cy="256" r="146" fill="#87dcff"/>
  <circle cx="256" cy="256" r="112" fill="#f5fbff"/>
  <circle cx="256" cy="256" r="14" fill="#ff5d73"/>
  <path d="M256 256V182" stroke="#112033" stroke-width="20" stroke-linecap="round"/>
  <path d="M256 256l58 34" stroke="#112033" stroke-width="20" stroke-linecap="round"/>
  <path d="M256 160V138M256 374v-22M160 256h22M330 256h22" stroke="#112033" stroke-width="12" stroke-linecap="round"/>
</svg>
